<svg version="1.1" xmlns="http://www.w3.org/2000/svg" xmlns:xlink="http://www.w3.org/1999/xlink" width="637.71240234375" height="154"><defs/><g><text fill="#eeeeee" stroke="none" font-family="Arial" font-size="24px" font-style="normal" font-weight="normal" text-decoration="none" x="0" y="0">UNREGISTERED</text><text fill="#eeeeee" stroke="none" font-family="Arial" font-size="24px" font-style="normal" font-weight="normal" text-decoration="none" x="0" y="30">UNREGISTERED</text><text fill="#eeeeee" stroke="none" font-family="Arial" font-size="24px" font-style="normal" font-weight="normal" text-decoration="none" x="0" y="60">UNREGISTERED</text><text fill="#eeeeee" stroke="none" font-family="Arial" font-size="24px" font-style="normal" font-weight="normal" text-decoration="none" x="0" y="90">UNREGISTERED</text><text fill="#eeeeee" stroke="none" font-family="Arial" font-size="24px" font-style="normal" font-weight="normal" text-decoration="none" x="0" y="120">UNREGISTERED</text><text fill="#eeeeee" stroke="none" font-family="Arial" font-size="24px" font-style="normal" font-weight="normal" text-decoration="none" x="0" y="150">UNREGISTERED</text><text fill="#eeeeee" stroke="none" font-family="Arial" font-size="24px" font-style="normal" font-weight="normal" text-decoration="none" x="200" y="0">UNREGISTERED</text><text fill="#eeeeee" stroke="none" font-family="Arial" font-size="24px" font-style="normal" font-weight="normal" text-decoration="none" x="200" y="30">UNREGISTERED</text><text fill="#eeeeee" stroke="none" font-family="Arial" font-size="24px" font-style="normal" font-weight="normal" text-decoration="none" x="200" y="60">UNREGISTERED</text><text fill="#eeeeee" stroke="none" font-family="Arial" font-size="24px" font-style="normal" font-weight="normal" text-decoration="none" x="200" y="90">UNREGISTERED</text><text fill="#eeeeee" stroke="none" font-family="Arial" font-size="24px" font-style="normal" font-weight="normal" text-decoration="none" x="200" y="120">UNREGISTERED</text><text fill="#eeeeee" stroke="none" font-family="Arial" font-size="24px" font-style="normal" font-weight="normal" text-decoration="none" x="200" y="150">UNREGISTERED</text><text fill="#eeeeee" stroke="none" font-family="Arial" font-size="24px" font-style="normal" font-weight="normal" text-decoration="none" x="400" y="0">UNREGISTERED</text><text fill="#eeeeee" stroke="none" font-family="Arial" font-size="24px" font-style="normal" font-weight="normal" text-decoration="none" x="400" y="30">UNREGISTERED</text><text fill="#eeeeee" stroke="none" font-family="Arial" font-size="24px" font-style="normal" font-weight="normal" text-decoration="none" x="400" y="60">UNREGISTERED</text><text fill="#eeeeee" stroke="none" font-family="Arial" font-size="24px" font-style="normal" font-weight="normal" text-decoration="none" x="400" y="90">UNREGISTERED</text><text fill="#eeeeee" stroke="none" font-family="Arial" font-size="24px" font-style="normal" font-weight="normal" text-decoration="none" x="400" y="120">UNREGISTERED</text><text fill="#eeeeee" stroke="none" font-family="Arial" font-size="24px" font-style="normal" font-weight="normal" text-decoration="none" x="400" y="150">UNREGISTERED</text><text fill="#eeeeee" stroke="none" font-family="Arial" font-size="24px" font-style="normal" font-weight="normal" text-decoration="none" x="600" y="0">UNREGISTERED</text><text fill="#eeeeee" stroke="none" font-family="Arial" font-size="24px" font-style="normal" font-weight="normal" text-decoration="none" x="600" y="30">UNREGISTERED</text><text fill="#eeeeee" stroke="none" font-family="Arial" font-size="24px" font-style="normal" font-weight="normal" text-decoration="none" x="600" y="60">UNREGISTERED</text><text fill="#eeeeee" stroke="none" font-family="Arial" font-size="24px" font-style="normal" font-weight="normal" text-decoration="none" x="600" y="90">UNREGISTERED</text><text fill="#eeeeee" stroke="none" font-family="Arial" font-size="24px" font-style="normal" font-weight="normal" text-decoration="none" x="600" y="120">UNREGISTERED</text><text fill="#eeeeee" stroke="none" font-family="Arial" font-size="24px" font-style="normal" font-weight="normal" text-decoration="none" x="600" y="150">UNREGISTERED</text><g transform="translate(1,-10) scale(1,1)"><rect fill="#C0C0C0" stroke="none" x="119.29833984375" y="27" width="106.55078125" height="24" opacity="0.2"/></g><g transform="translate(1,-10) scale(1,1)"><rect fill="#ffffff" stroke="none" x="112.29833984375" y="20" width="106.55078125" height="24"/></g><g transform="translate(1,-10) scale(1,1)"><path fill="none" stroke="#000000" d="M 112.29833984375 20 L 218.84912109375 20 L 218.84912109375 44 L 112.29833984375 44 L 112.29833984375 20 Z Z" stroke-miterlimit="10"/></g><g transform="translate(1,-10) scale(1,1)"><g><path fill="none" stroke="none"/><text fill="#000000" stroke="none" font-family="Arial" font-size="13px" font-style="normal" font-weight="bold" text-decoration="none" x="119.334228515625" y="39.5">BTSelectDevice</text></g></g><g transform="translate(1,-10) scale(1,1)"><rect fill="#C0C0C0" stroke="none" x="27" y="82" width="72.5908203125" height="24" opacity="0.2"/></g><g transform="translate(1,-10) scale(1,1)"><rect fill="#ffffff" stroke="none" x="20" y="75" width="72.5908203125" height="24"/></g><g transform="translate(1,-10) scale(1,1)"><path fill="none" stroke="#000000" d="M 20 75 L 92.5908203125 75 L 92.5908203125 99 L 20 99 L 20 75 Z Z" stroke-miterlimit="10"/></g><g transform="translate(1,-10) scale(1,1)"><g><path fill="none" stroke="none"/><text fill="#000000" stroke="none" font-family="Arial" font-size="13px" font-style="normal" font-weight="bold" text-decoration="none" x="26.3154296875" y="94.5">BTService</text></g></g><g transform="translate(1,-10) scale(1,1)"><rect fill="#C0C0C0" stroke="none" x="124.763671875" y="82" width="100.74267578125" height="24" opacity="0.2"/></g><g transform="translate(1,-10) scale(1,1)"><rect fill="#ffffff" stroke="none" x="117.763671875" y="75" width="100.74267578125" height="24"/></g><g transform="translate(1,-10) scale(1,1)"><path fill="none" stroke="#000000" d="M 117.763671875 75 L 218.50634765625 75 L 218.50634765625 99 L 117.763671875 99 L 117.763671875 75 Z Z" stroke-miterlimit="10"/></g><g transform="translate(1,-10) scale(1,1)"><g><path fill="none" stroke="none"/><text fill="#000000" stroke="none" font-family="Arial" font-size="13px" font-style="normal" font-weight="bold" text-decoration="none" x="124.41552734375" y="94.5">GraphManager</text></g></g><g transform="translate(1,-10) scale(1,1)"><rect fill="#C0C0C0" stroke="none" x="245.93115234375" y="27" width="74.00634765625" height="24" opacity="0.2"/></g><g transform="translate(1,-10) scale(1,1)"><rect fill="#ffffff" stroke="none" x="238.93115234375" y="20" width="74.00634765625" height="24"/></g><g transform="translate(1,-10) scale(1,1)"><path fill="none" stroke="#000000" d="M 238.93115234375 20 L 312.9375 20 L 312.9375 44 L 238.93115234375 44 L 238.93115234375 20 Z Z" stroke-miterlimit="10"/></g><g transform="translate(1,-10) scale(1,1)"><g><path fill="none" stroke="none"/><text fill="#000000" stroke="none" font-family="Arial" font-size="13px" font-style="normal" font-weight="bold" text-decoration="none" x="245.579833984375" y="39.5">LineGraph</text></g></g><g transform="translate(1,-10) scale(1,1)"><rect fill="#C0C0C0" stroke="none" x="252.1455078125" y="82" width="79.82080078125" height="24" opacity="0.2"/></g><g transform="translate(1,-10) scale(1,1)"><rect fill="#ffffff" stroke="none" x="245.1455078125" y="75" width="79.82080078125" height="24"/></g><g transform="translate(1,-10) scale(1,1)"><path fill="none" stroke="#000000" d="M 245.1455078125 75 L 324.96630859375 75 L 324.96630859375 99 L 245.1455078125 99 L 245.1455078125 75 Z Z" stroke-miterlimit="10"/></g><g transform="translate(1,-10) scale(1,1)"><g><path fill="none" stroke="none"/><text fill="#000000" stroke="none" font-family="Arial" font-size="13px" font-style="normal" font-weight="bold" text-decoration="none" x="251.82275390625" y="94.5">UsbService</text></g></g><g transform="translate(1,-10) scale(1,1)"><rect fill="#C0C0C0" stroke="none" x="348.0556640625" y="27" width="84.86083984375" height="24" opacity="0.2"/></g><g transform="translate(1,-10) scale(1,1)"><rect fill="#ffffff" stroke="none" x="341.0556640625" y="20" width="84.86083984375" height="24"/></g><g transform="translate(1,-10) scale(1,1)"><path fill="none" stroke="#000000" d="M 341.0556640625 20 L 425.91650390625 20 L 425.91650390625 44 L 341.0556640625 44 L 341.0556640625 20 Z Z" stroke-miterlimit="10"/></g><g transform="translate(1,-10) scale(1,1)"><g><path fill="none" stroke="none"/><text fill="#000000" stroke="none" font-family="Arial" font-size="13px" font-style="normal" font-weight="bold" text-decoration="none" x="349.173828125" y="39.5">fileDirectory</text></g></g><g transform="translate(1,-10) scale(1,1)"><rect fill="#C0C0C0" stroke="none" x="134.2708740234375" y="137" width="88.47265625" height="24" opacity="0.2"/></g><g transform="translate(1,-10) scale(1,1)"><rect fill="#ffffff" stroke="none" x="127.2708740234375" y="130" width="88.47265625" height="24"/></g><g transform="translate(1,-10) scale(1,1)"><path fill="none" stroke="#000000" d="M 127.2708740234375 130 L 215.7435302734375 130 L 215.7435302734375 154 L 127.2708740234375 154 L 127.2708740234375 130 Z Z" stroke-miterlimit="10"/></g><g transform="translate(1,-10) scale(1,1)"><g><path fill="none" stroke="none"/><text fill="#000000" stroke="none" font-family="Arial" font-size="13px" font-style="normal" font-weight="bold" text-decoration="none" x="134.2877197265625" y="149.5">graphScreen</text></g></g><g transform="translate(1,-10) scale(1,1)"><rect fill="#C0C0C0" stroke="none" x="458.552734375" y="27" width="87.03173828125" height="24" opacity="0.2"/></g><g transform="translate(1,-10) scale(1,1)"><rect fill="#ffffff" stroke="none" x="451.552734375" y="20" width="87.03173828125" height="24"/></g><g transform="translate(1,-10) scale(1,1)"><path fill="none" stroke="#000000" d="M 451.552734375 20 L 538.58447265625 20 L 538.58447265625 44 L 451.552734375 44 L 451.552734375 20 Z Z" stroke-miterlimit="10"/></g><g transform="translate(1,-10) scale(1,1)"><g><path fill="none" stroke="none"/><text fill="#000000" stroke="none" font-family="Arial" font-size="13px" font-style="normal" font-weight="bold" text-decoration="none" x="458.214111328125" y="39.5">homeScreen</text></g></g><g transform="translate(1,-10) scale(1,1)"><rect fill="#C0C0C0" stroke="none" x="566.18701171875" y="27" width="67.525390625" height="24" opacity="0.2"/></g><g transform="translate(1,-10) scale(1,1)"><rect fill="#ffffff" stroke="none" x="559.18701171875" y="20" width="67.525390625" height="24"/></g><g transform="translate(1,-10) scale(1,1)"><path fill="none" stroke="#000000" d="M 559.18701171875 20 L 626.71240234375 20 L 626.71240234375 44 L 559.18701171875 44 L 559.18701171875 20 Z Z" stroke-miterlimit="10"/></g><g transform="translate(1,-10) scale(1,1)"><g><path fill="none" stroke="none"/><text fill="#000000" stroke="none" font-family="Arial" font-size="13px" font-style="normal" font-weight="bold" text-decoration="none" x="564.769287109375" y="39.5">metaData</text></g></g><g transform="translate(1,-10) scale(1,1)"><rect fill="#C0C0C0" stroke="none" x="354.24462890625" y="82" width="80.54443359375" height="24" opacity="0.2"/></g><g transform="translate(1,-10) scale(1,1)"><rect fill="#ffffff" stroke="none" x="347.24462890625" y="75" width="80.54443359375" height="24"/></g><g transform="translate(1,-10) scale(1,1)"><path fill="none" stroke="#000000" d="M 347.24462890625 75 L 427.7890625 75 L 427.7890625 99 L 347.24462890625 99 L 347.24462890625 75 Z Z" stroke-miterlimit="10"/></g><g transform="translate(1,-10) scale(1,1)"><g><path fill="none" stroke="none"/><text fill="#000000" stroke="none" font-family="Arial" font-size="13px" font-style="normal" font-weight="bold" text-decoration="none" x="353.918701171875" y="94.5">viewScreen</text></g></g><g transform="translate(1,-10) scale(1,1)"><path fill="none" stroke="#000000" d="M 126 132 Q 54 115 55 100" stroke-miterlimit="10"/></g><g transform="translate(1,-10) scale(1,1)"><path fill="none" stroke="#000000" d="M 58.524183262882616 110.42017909297235 L 55 100 L 50.1237945855094 109.86015318114747" stroke-miterlimit="10"/></g><g transform="translate(1,-10) scale(1,1)"><g><path fill="none" stroke="none"/><text fill="#000000" stroke="none" font-family="Arial" font-size="13px" font-style="normal" font-weight="normal" text-decoration="none" x="8.5" y="130.5">-btService</text></g></g><g transform="translate(1,-10) scale(1,1)"><path fill="none" stroke="#000000" d="M 193 74 L 250 45" stroke-miterlimit="10"/></g><g transform="translate(1,-10) scale(1,1)"><path fill="none" stroke="#000000" d="M 242.85106748466728 53.36018922580216 L 250 45 L 239.0333948465958 45.856487833730654" stroke-miterlimit="10"/></g><g transform="translate(1,-10) scale(1,1)"><g><path fill="none" stroke="none"/><text fill="#000000" stroke="none" font-family="Arial" font-size="13px" font-style="normal" font-weight="normal" text-decoration="none" x="189.5" y="49.5">-co2Graph</text></g></g><g transform="translate(1,-10) scale(1,1)"><path fill="none" stroke="#000000" d="M 193 74 L 250 45" stroke-miterlimit="10"/></g><g transform="translate(1,-10) scale(1,1)"><path fill="none" stroke="#000000" d="M 242.85106748466728 53.36018922580216 L 250 45 L 239.0333948465958 45.856487833730654" stroke-miterlimit="10"/></g><g transform="translate(1,-10) scale(1,1)"><g><path fill="none" stroke="none"/><text fill="#000000" stroke="none" font-family="Arial" font-size="13px" font-style="normal" font-weight="normal" text-decoration="none" x="188.5" y="49.5">-h2oGraph</text></g></g><g transform="translate(1,-10) scale(1,1)"><path fill="none" stroke="#000000" d="M 193 74 L 250 45" stroke-miterlimit="10"/></g><g transform="translate(1,-10) scale(1,1)"><path fill="none" stroke="#000000" d="M 242.85106748466728 53.36018922580216 L 250 45 L 239.0333948465958 45.856487833730654" stroke-miterlimit="10"/></g><g transform="translate(1,-10) scale(1,1)"><g><path fill="none" stroke="none"/><text fill="#000000" stroke="none" font-family="Arial" font-size="13px" font-style="normal" font-weight="normal" text-decoration="none" x="185.5" y="49.5">-tempGraph</text></g></g><g transform="translate(1,-10) scale(1,1)"><path fill="none" stroke="#000000" d="M 167 74 Q 166 60 238 42" stroke-miterlimit="10"/></g><g transform="translate(1,-10) scale(1,1)"><path fill="none" stroke="#000000" d="M 229.16171522551727 48.548642778862416 L 238 42 L 227.1197991854035 40.38097861840738" stroke-miterlimit="10"/></g><g transform="translate(1,-10) scale(1,1)"><g><path fill="none" stroke="none"/><text fill="#000000" stroke="none" font-family="Arial" font-size="13px" font-style="normal" font-weight="normal" text-decoration="none" x="176.5" y="39.5">-presGraph</text></g></g><g transform="translate(1,-10) scale(1,1)"><path fill="none" stroke="#000000" d="M 169 129 Q 166 115 167 100" stroke-miterlimit="10"/></g><g transform="translate(1,-10) scale(1,1)"><path fill="none" stroke="#000000" d="M 170.52418326288262 110.42017909297235 L 167 100 L 162.1237945855094 109.86015318114747" stroke-miterlimit="10"/></g><g transform="translate(1,-10) scale(1,1)"><g><path fill="none" stroke="none"/><text fill="#000000" stroke="none" font-family="Arial" font-size="13px" font-style="normal" font-weight="normal" text-decoration="none" x="122.5" y="130.5">-manager</text></g></g><g transform="translate(1,-10) scale(1,1)"><path fill="none" stroke="#000000" d="M 361 74 L 301 45" stroke-miterlimit="10"/></g><g transform="translate(1,-10) scale(1,1)"><path fill="none" stroke="#000000" d="M 311.981803869541 45.63244270170005 L 301 45 L 308.3181034627291 53.21251250889718" stroke-miterlimit="10"/></g><g transform="translate(1,-10) scale(1,1)"><g><path fill="none" stroke="none"/><text fill="#000000" stroke="none" font-family="Arial" font-size="13px" font-style="normal" font-weight="normal" text-decoration="none" x="286.5" y="75.5">-co2Graph</text></g></g><g transform="translate(1,-10) scale(1,1)"><path fill="none" stroke="#000000" d="M 361 74 L 301 45" stroke-miterlimit="10"/></g><g transform="translate(1,-10) scale(1,1)"><path fill="none" stroke="#000000" d="M 311.981803869541 45.63244270170005 L 301 45 L 308.3181034627291 53.21251250889718" stroke-miterlimit="10"/></g><g transform="translate(1,-10) scale(1,1)"><g><path fill="none" stroke="none"/><text fill="#000000" stroke="none" font-family="Arial" font-size="13px" font-style="normal" font-weight="normal" text-decoration="none" x="285.5" y="75.5">-h2oGraph</text></g></g><g transform="translate(1,-10) scale(1,1)"><path fill="none" stroke="#000000" d="M 361 74 L 301 45" stroke-miterlimit="10"/></g><g transform="translate(1,-10) scale(1,1)"><path fill="none" stroke="#000000" d="M 311.981803869541 45.63244270170005 L 301 45 L 308.3181034627291 53.21251250889718" stroke-miterlimit="10"/></g><g transform="translate(1,-10) scale(1,1)"><g><path fill="none" stroke="none"/><text fill="#000000" stroke="none" font-family="Arial" font-size="13px" font-style="normal" font-weight="normal" text-decoration="none" x="282.5" y="75.5">-tempGraph</text></g></g><g transform="translate(1,-10) scale(1,1)"><path fill="none" stroke="#000000" d="M 386 74 Q 384 60 314 42" stroke-miterlimit="10"/></g><g transform="translate(1,-10) scale(1,1)"><path fill="none" stroke="#000000" d="M 324.8908214549482 40.45403491745751 L 314 42 L 322.7941360968292 48.60781131014238" stroke-miterlimit="10"/></g><g transform="translate(1,-10) scale(1,1)"><g><path fill="none" stroke="none"/><text fill="#000000" stroke="none" font-family="Arial" font-size="13px" font-style="normal" font-weight="normal" text-decoration="none" x="302.5" y="68.5">-presGraph</text></g></g><g transform="translate(1,-10) scale(1,1)"><path fill="none" stroke="#000000" d="M 217 131 Q 281 115 283 100" stroke-miterlimit="10"/></g><g transform="translate(1,-10) scale(1,1)"><path fill="none" stroke="#000000" d="M 285.82945453292297 110.62987239086725 L 283 100 L 277.48427163655896 109.51718133801872" stroke-miterlimit="10"/></g><g transform="translate(1,-10) scale(1,1)"><g><path fill="none" stroke="none"/><text fill="#000000" stroke="none" font-family="Arial" font-size="13px" font-style="normal" font-weight="normal" text-decoration="none" x="229.5" y="129.5">-usbService</text></g></g></g></svg>